<svg width="15" height="15" viewBox="0 0 23 21" fill="none" xmlns="http://www.w3.org/2000/svg">
<path d="M18.5869 20.4999H4.58691C4.3217 20.4999 4.06734 20.3946 3.87981 20.207C3.69227 20.0195 3.58691 19.7651 3.58691 19.4999V10.4999H0.586914L10.9139 1.11192C11.098 0.944398 11.338 0.851562 11.5869 0.851562C11.8358 0.851563 12.0758 0.944398 12.2599 1.11192L22.5869 10.4999H19.5869V19.4999C19.5869 19.7651 19.4816 20.0195 19.294 20.207C19.1065 20.3946 18.8521 20.4999 18.5869 20.4999ZM12.5869 18.4999H17.5869V8.65692L11.5869 3.20292L5.58691 8.65692V18.4999H10.5869V12.4999H12.5869V18.4999Z" fill="#6B92C5"/>
</svg>
