<svg width="17" height="17" viewBox="0 0 23 23" fill="none" xmlns="http://www.w3.org/2000/svg">
<g clip-path="url(#clip0_111_1832)">
<path d="M2.87533 2.875H20.1253C20.3795 2.875 20.6232 2.97597 20.803 3.15569C20.9827 3.33541 21.0837 3.57917 21.0837 3.83333V19.1667C21.0837 19.4208 20.9827 19.6646 20.803 19.8443C20.6232 20.024 20.3795 20.125 20.1253 20.125H2.87533C2.62116 20.125 2.3774 20.024 2.19768 19.8443C2.01796 19.6646 1.91699 19.4208 1.91699 19.1667V3.83333C1.91699 3.57917 2.01796 3.33541 2.19768 3.15569C2.3774 2.97597 2.62116 2.875 2.87533 2.875ZM19.167 6.93642L11.5693 13.7406L3.83366 6.91533V18.2083H19.167V6.93642ZM4.32337 4.79167L11.5588 11.1761L18.6897 4.79167H4.32337Z" fill="#F4F4F4"/>
</g>
<defs>
<clipPath id="clip0_111_1832">
<rect width="23" height="23" fill="white"/>
</clipPath>
</defs>
</svg>
