<svg width="15" height="15" viewBox="0 0 20 21" fill="none" xmlns="http://www.w3.org/2000/svg">
<path d="M18.0293 14.7915H19.946V16.7082H0.779297V14.7915H2.69596V8.08317C2.69596 6.04984 3.5037 4.0998 4.94148 2.66202C6.37926 1.22424 8.3293 0.416504 10.3626 0.416504C12.396 0.416504 14.346 1.22424 15.7838 2.66202C17.2216 4.0998 18.0293 6.04984 18.0293 8.08317V14.7915ZM16.1126 14.7915V8.08317C16.1126 6.55818 15.5068 5.09564 14.4285 4.01731C13.3502 2.93897 11.8876 2.33317 10.3626 2.33317C8.83764 2.33317 7.3751 2.93897 6.29677 4.01731C5.21843 5.09564 4.61263 6.55818 4.61263 8.08317V14.7915H16.1126ZM7.48763 18.6248H13.2376V20.5415H7.48763V18.6248Z" fill="#6B92C5"/>
</svg>
