<svg width="17" height="17" viewBox="0 0 21 21" fill="none" xmlns="http://www.w3.org/2000/svg">
<path d="M18.125 13.608V19.1327C18.1248 19.385 18.0244 19.6268 17.846 19.805C17.6675 19.9833 17.4256 20.0834 17.1734 20.0834H1.82665C1.7008 20.0825 1.57635 20.0569 1.46042 20.0079C1.34448 19.9589 1.23933 19.8876 1.15096 19.798C1.0626 19.7084 0.992745 19.6022 0.945399 19.4856C0.898053 19.369 0.87414 19.2442 0.875024 19.1184V7.62508H6.62502C6.87919 7.62508 7.12295 7.52411 7.30267 7.34439C7.48239 7.16467 7.58336 6.92091 7.58336 6.66675V0.916748H17.1686C17.6966 0.916748 18.125 1.35279 18.125 1.86741V5.47554L9.50098 14.1005L9.49523 18.162L13.5643 18.1677L18.125 13.608ZM18.8706 7.44108L20.2257 8.79616L12.7718 16.2501L11.4148 16.2482L11.4167 14.895L18.8706 7.44108ZM0.875024 5.70841L5.66669 0.919623V5.70841H0.875024Z" fill="#F4F4F4"/>
</svg>
