<svg width="17" height="17" viewBox="0 0 19 22" fill="none" xmlns="http://www.w3.org/2000/svg">
<path d="M8.49967 13.4166V15.3333C6.97468 15.3333 5.51214 15.9391 4.43381 17.0174C3.35548 18.0957 2.74967 19.5583 2.74967 21.0833H0.833008C0.833008 19.0499 1.64074 17.0999 3.07852 15.6621C4.5163 14.2243 6.46635 13.4166 8.49967 13.4166ZM8.49967 12.4583C5.3228 12.4583 2.74967 9.88513 2.74967 6.70825C2.74967 3.53138 5.3228 0.958252 8.49967 0.958252C11.6765 0.958252 14.2497 3.53138 14.2497 6.70825C14.2497 9.88513 11.6765 12.4583 8.49967 12.4583ZM8.49967 10.5416C10.6176 10.5416 12.333 8.82617 12.333 6.70825C12.333 4.59034 10.6176 2.87492 8.49967 2.87492C6.38176 2.87492 4.66634 4.59034 4.66634 6.70825C4.66634 8.82617 6.38176 10.5416 8.49967 10.5416ZM10.9865 18.0281C10.865 17.5167 10.865 16.984 10.9865 16.4727L10.0359 15.9236L10.9942 14.2638L11.9449 14.8129C12.3265 14.4515 12.7877 14.1849 13.2913 14.0347V12.9374H15.208V14.0347C15.7178 14.1861 16.1778 14.4564 16.5545 14.8129L17.5051 14.2638L18.4635 15.9236L17.5128 16.4727C17.6342 16.9837 17.6342 17.5161 17.5128 18.0271L18.4635 18.5763L17.5051 20.2361L16.5545 19.687C16.1729 20.0484 15.7116 20.3149 15.208 20.4651V21.5624H13.2913V20.4651C12.7877 20.3149 12.3265 20.0484 11.9449 19.687L10.9942 20.2361L10.0359 18.5763L10.9865 18.0281ZM14.2497 18.6874C14.6309 18.6874 14.9966 18.536 15.2661 18.2664C15.5357 17.9968 15.6872 17.6312 15.6872 17.2499C15.6872 16.8687 15.5357 16.503 15.2661 16.2335C14.9966 15.9639 14.6309 15.8124 14.2497 15.8124C13.8684 15.8124 13.5028 15.9639 13.2332 16.2335C12.9636 16.503 12.8122 16.8687 12.8122 17.2499C12.8122 17.6312 12.9636 17.9968 13.2332 18.2664C13.5028 18.536 13.8684 18.6874 14.2497 18.6874Z" fill="#F4F4F4"/>
</svg>
