<svg width="17" height="17" viewBox="0 0 21 19" fill="none" xmlns="http://www.w3.org/2000/svg">
<path d="M1.87533 0.875H19.1253C19.3795 0.875 19.6232 0.975967 19.803 1.15569C19.9827 1.33541 20.0837 1.57917 20.0837 1.83333V17.1667C20.0837 17.4208 19.9827 17.6646 19.803 17.8443C19.6232 18.024 19.3795 18.125 19.1253 18.125H1.87533C1.62116 18.125 1.3774 18.024 1.19768 17.8443C1.01796 17.6646 0.916992 17.4208 0.916992 17.1667V1.83333C0.916992 1.57917 1.01796 1.33541 1.19768 1.15569C1.3774 0.975967 1.62116 0.875 1.87533 0.875ZM2.83366 2.79167V16.2083H18.167V2.79167H2.83366ZM10.5003 12.375H16.2503V14.2917H10.5003V12.375ZM7.3062 9.5L4.59508 6.78983L5.95112 5.43379L10.0164 9.5L5.95112 13.5662L4.59508 12.2102L7.3062 9.5Z" fill="#F4F4F4"/>
</svg>
