<svg width="17" height="17" viewBox="0 0 23 23" fill="none" xmlns="http://www.w3.org/2000/svg">
<g clip-path="url(#clip0_111_1822)">
<path d="M4.79167 11.9792C4.79167 12.2791 5.23346 12.8014 6.25792 13.3141C7.58425 13.9773 9.46546 14.375 11.5 14.375C13.5345 14.375 15.4157 13.9773 16.7421 13.3141C17.7665 12.8014 18.2083 12.2791 18.2083 11.9792V9.89863C16.6271 10.8761 14.2092 11.5 11.5 11.5C8.79079 11.5 6.37292 10.8752 4.79167 9.89863V11.9792ZM18.2083 14.6903C16.6271 15.6678 14.2092 16.2917 11.5 16.2917C8.79079 16.2917 6.37292 15.6668 4.79167 14.6903V16.7708C4.79167 17.0708 5.23346 17.5931 6.25792 18.1058C7.58425 18.769 9.46546 19.1667 11.5 19.1667C13.5345 19.1667 15.4157 18.769 16.7421 18.1058C17.7665 17.5931 18.2083 17.0708 18.2083 16.7708V14.6903ZM2.875 16.7708V7.1875C2.875 4.80604 6.73708 2.875 11.5 2.875C16.2629 2.875 20.125 4.80604 20.125 7.1875V16.7708C20.125 19.1523 16.2629 21.0833 11.5 21.0833C6.73708 21.0833 2.875 19.1523 2.875 16.7708ZM11.5 9.58333C13.5345 9.58333 15.4157 9.18563 16.7421 8.52246C17.7665 8.00975 18.2083 7.48746 18.2083 7.1875C18.2083 6.88754 17.7665 6.36525 16.7421 5.85254C15.4157 5.18937 13.5345 4.79167 11.5 4.79167C9.46546 4.79167 7.58425 5.18937 6.25792 5.85254C5.23346 6.36525 4.79167 6.88754 4.79167 7.1875C4.79167 7.48746 5.23346 8.00975 6.25792 8.52246C7.58425 9.18563 9.46546 9.58333 11.5 9.58333Z" fill="#F4F4F4"/>
</g>
<defs>
<clipPath id="clip0_111_1822">
<rect width="23" height="23" fill="white"/>
</clipPath>
</defs>
</svg>
