<svg width="17" height="17" viewBox="0 0 23 23" fill="none" xmlns="http://www.w3.org/2000/svg">
<g clip-path="url(#clip0_111_1827)">
<path d="M2.87533 20.125C2.62116 20.125 2.3774 20.024 2.19768 19.8443C2.01796 19.6646 1.91699 19.4208 1.91699 19.1667V3.83333C1.91699 3.57917 2.01796 3.33541 2.19768 3.15569C2.3774 2.97597 2.62116 2.875 2.87533 2.875H9.98041L11.8971 4.79167H19.167C19.4212 4.79167 19.6649 4.89263 19.8446 5.07236C20.0244 5.25208 20.1253 5.49583 20.1253 5.75V8.625H3.83366V18.2045L5.75033 10.5417H21.5628L19.3491 19.3995C19.2972 19.6068 19.1775 19.7907 19.0091 19.9222C18.8406 20.0536 18.6331 20.125 18.4195 20.125H2.87533Z" fill="#F4F4F4"/>
</g>
<defs>
<clipPath id="clip0_111_1827">
<rect width="23" height="23" fill="white"/>
</clipPath>
</defs>
</svg>
