<svg width="17" height="18" viewBox="0 0 19 21" fill="none" xmlns="http://www.w3.org/2000/svg">
<path d="M4.65083 12.4512C4.42754 13.0492 4.23875 13.6012 4.07008 14.16C4.99008 13.492 6.08354 13.0684 7.34567 12.9103C9.75396 12.6094 11.8939 11.0195 12.9768 9.02137L11.5815 7.627L12.9356 6.27096L13.894 5.31166C14.306 4.89958 14.7708 4.13866 15.2625 3.04233C9.9025 3.87321 6.62021 7.1555 4.64988 12.4512H4.65083ZM14.2917 7.62604L15.25 8.58341C14.2917 11.4584 11.4167 14.3334 7.58333 14.8126C5.02554 15.1327 3.428 16.8893 2.78975 20.0834H0.875C1.83333 14.3334 3.75 0.916748 18.125 0.916748C17.1667 3.78887 16.2102 5.70458 15.2529 6.66387L14.2917 7.62604Z" fill="#F4F4F4"/>
</svg>
