<svg fill="white" xmlns="http://www.w3.org/2000/svg" width="17px" height="17px" viewBox="0 0 17 17">
<path d="M 3.769531 12.847656 L 12.847656 3.769531 C 13.214844 3.402344 13.214844 2.808594 12.847656 2.445312 L 12.027344 1.625 L 11.5 1.09375 L 10.679688 0.273438 C 10.3125 -0.0898438 9.722656 -0.0898438 9.355469 0.273438 L 0.273438 9.355469 C -0.0898438 9.71875 -0.0898438 10.3125 0.273438 10.679688 L 2.445312 12.847656 C 2.808594 13.214844 3.402344 13.214844 3.769531 12.847656 Z M 3.769531 12.847656 "/>
<path d="M 12.121094 0.472656 L 12.648438 1.003906 L 12.3125 1.339844 L 11.78125 0.8125 Z M 12.121094 0.472656 "/>
<path d="M 16.625 14.8125 L 12.273438 10.460938 L 10.460938 12.273438 L 14.8125 16.625 C 15.3125 17.125 16.125 17.125 16.625 16.625 C 17.125 16.125 17.125 15.3125 16.625 14.8125 Z M 16.625 14.8125 "/>
<path d="M 11.089844 10.5625 L 10.339844 9.808594 C 9.777344 9.25 8.730469 9.386719 8 10.117188 L 3.746094 14.371094 C 3.308594 14.808594 2.597656 14.808594 2.15625 14.371094 L 1.515625 13.726562 C 1.136719 13.347656 1.085938 12.765625 1.359375 12.332031 L 0.824219 11.796875 C 0.261719 12.527344 0.3125 13.585938 0.984375 14.257812 L 1.628906 14.898438 C 2.359375 15.628906 3.546875 15.628906 4.273438 14.898438 L 8.527344 10.644531 C 8.996094 10.179688 9.578125 10.109375 9.808594 10.339844 L 10.5625 11.089844 Z M 11.089844 10.5625 "/>
</svg>
