<svg width="15" height="15" viewBox="0 0 17 21" fill="none" xmlns="http://www.w3.org/2000/svg">
<path d="M0.695312 20.5835C0.695312 18.5502 1.50305 16.6001 2.94083 15.1623C4.37861 13.7246 6.32865 12.9168 8.36198 12.9168C10.3953 12.9168 12.3454 13.7246 13.7831 15.1623C15.2209 16.6001 16.0286 18.5502 16.0286 20.5835H14.112C14.112 19.0585 13.5062 17.596 12.4278 16.5176C11.3495 15.4393 9.88697 14.8335 8.36198 14.8335C6.83698 14.8335 5.37445 15.4393 4.29612 16.5176C3.21778 17.596 2.61198 19.0585 2.61198 20.5835H0.695312ZM8.36198 11.9585C5.1851 11.9585 2.61198 9.38537 2.61198 6.2085C2.61198 3.03162 5.1851 0.458496 8.36198 0.458496C11.5389 0.458496 14.112 3.03162 14.112 6.2085C14.112 9.38537 11.5389 11.9585 8.36198 11.9585ZM8.36198 10.0418C10.4799 10.0418 12.1953 8.32641 12.1953 6.2085C12.1953 4.09058 10.4799 2.37516 8.36198 2.37516C6.24406 2.37516 4.52865 4.09058 4.52865 6.2085C4.52865 8.32641 6.24406 10.0418 8.36198 10.0418Z" fill="#6B92C5"/>
</svg>
