<svg width="17" height="17" viewBox="0 0 21 20" fill="none" xmlns="http://www.w3.org/2000/svg">
<path d="M12.417 15.25V17.1667L14.3337 18.125V19.0833H6.66703L6.6632 18.1288L8.5837 17.1667V15.25H1.8677C1.74186 15.2492 1.6174 15.2237 1.50146 15.1747C1.38552 15.1258 1.28038 15.0544 1.19206 14.9648C1.10375 14.8751 1.03399 14.7689 0.986799 14.6523C0.939603 14.5356 0.915894 14.4108 0.917031 14.285V1.84004C0.917031 1.30721 1.35307 0.875 1.8677 0.875H19.133C19.6582 0.875 20.0837 1.30529 20.0837 1.84004V14.285C20.0837 14.8178 19.6477 15.25 19.133 15.25H12.417ZM2.8337 2.79167V11.4167H18.167V2.79167H2.8337Z" fill="#F4F4F4"/>
</svg>
