<svg width="17" height="17" viewBox="0 0 19 21" fill="none" xmlns="http://www.w3.org/2000/svg">
<path d="M18.125 2.83341H4.70833C4.2 2.83341 3.71249 3.03535 3.35305 3.39479C2.9936 3.75424 2.79167 4.24175 2.79167 4.75008C2.79167 5.25841 2.9936 5.74592 3.35305 6.10537C3.71249 6.46481 4.2 6.66675 4.70833 6.66675H18.125V19.1251C18.125 19.3792 18.024 19.623 17.8443 19.8027C17.6646 19.9824 17.4208 20.0834 17.1667 20.0834H4.70833C3.69167 20.0834 2.71665 19.6795 1.99776 18.9607C1.27887 18.2418 0.875 17.2667 0.875 16.2501V4.75008C0.875 3.73342 1.27887 2.75839 1.99776 2.03951C2.71665 1.32062 3.69167 0.916748 4.70833 0.916748H17.1667C17.4208 0.916748 17.6646 1.01771 17.8443 1.19744C18.024 1.37716 18.125 1.62092 18.125 1.87508V2.83341ZM17.1667 5.70841H4.70833C4.45417 5.70841 4.21041 5.60745 4.03069 5.42773C3.85097 5.248 3.75 5.00425 3.75 4.75008C3.75 4.49592 3.85097 4.25216 4.03069 4.07244C4.21041 3.89272 4.45417 3.79175 4.70833 3.79175H17.1667V5.70841Z" fill="#E1E1E1"/>
</svg>
